<!DOCTYPE svg PUBLIC "-//W3C//DTD SVG 1.1//EN" "http://www.w3.org/Graphics/SVG/1.1/DTD/svg11.dtd">
<!-- Uploaded to: SVG Repo, www.svgrepo.com, Transformed by: SVG Repo Mixer Tools -->
<svg width="800px" height="800px" viewBox="-102.4 -102.4 1228.80 1228.80" class="icon" version="1.1" xmlns="http://www.w3.org/2000/svg" fill="#000000" transform="rotate(0)">
<g id="SVGRepo_bgCarrier" stroke-width="0" transform="translate(168.95999999999998,168.95999999999998), scale(0.67)">
<path transform="translate(-102.4, -102.4), scale(38.4)" d="M16,29.89378763500013C19.5043571488296,29.52772519485397,22.972053512280393,27.81221036933922,24.800117778744358,24.800117778744358C26.38364284734665,22.190951233749587,24.485490309055155,19.05163363494369,24.432256292747823,16C24.380891010433828,13.055491318317571,26.121727237407143,9.958763461119029,24.498355728982684,7.501644271017318C22.68210464231316,4.752584443405813,19.286976281100184,3.4648021072813577,16,3.237019594562682C12.4690501372428,2.9923300795676733,8.964735497876287,3.981765158588101,6.236097222685707,6.236097222685704C3.2178937409454984,8.729660750956137,0.7582566736880793,12.090428001123971,0.5517182697198884,15.999999999999996C0.3362633218652763,20.07835354088151,2.1103367702996385,24.122045809694253,5.146924875505169,26.853075124494826C8.05087185022693,29.464810414834698,12.115490043091327,30.299560543755437,16,29.89378763500013" fill="#250967" strokewidth="0"/>
</g>
<g id="SVGRepo_tracerCarrier" stroke-linecap="round" stroke-linejoin="round" stroke="#CCCCCC" stroke-width="2.048"/>
<g id="SVGRepo_iconCarrier">
<path d="M416 425.6l78.4 44.8c9.6 6.4 16 16 16 27.2v91.2c0 11.2-6.4 22.4-16 27.2L416 662.4c-9.6 6.4-22.4 6.4-32 0l-78.4-44.8c-9.6-6.4-16-16-16-27.2v-91.2c0-11.2 6.4-22.4 16-27.2l78.4-44.8c9.6-8 22.4-8 32-1.6z" fill="#1dbf4d"/>
<path d="M643.2 267.2c-3.2-1.6-4.8-1.6-8 0l-67.2 38.4c-3.2 1.6-3.2 4.8-3.2 6.4v76.8c0 3.2 1.6 4.8 3.2 6.4l67.2 38.4c3.2 1.6 4.8 1.6 8 0l67.2-38.4c3.2-1.6 3.2-4.8 3.2-6.4v-76.8c0-3.2-1.6-4.8-3.2-6.4l-67.2-38.4z m9.6-12.8l67.2 38.4c8 4.8 12.8 12.8 12.8 20.8v76.8c0 8-4.8 16-12.8 20.8l-67.2 38.4c-8 4.8-16 4.8-24 0l-67.2-38.4c-8-4.8-12.8-12.8-12.8-20.8v-76.8c0-8 4.8-16 12.8-20.8l67.2-38.4c6.4-4.8 16-4.8 24 0zM688 691.2l-67.2 38.4v76.8l67.2 38.4 67.2-38.4v-76.8L688 691.2z m83.2 9.6c9.6 6.4 16 16 16 27.2v76.8c0 11.2-6.4 22.4-16 27.2L704 873.6c-9.6 6.4-22.4 6.4-32 0l-67.2-38.4c-9.6-6.4-16-16-16-27.2v-76.8c0-11.2 6.4-22.4 16-27.2l67.2-38.4c9.6-6.4 22.4-6.4 32 0l67.2 35.2zM176 169.6v44.8l40 22.4 40-22.4v-44.8l-40-22.4-40 22.4zM275.2 144c8 4.8 12.8 12.8 12.8 20.8v54.4c0 8-4.8 16-12.8 20.8l-48 27.2c-8 4.8-16 4.8-24 0l-48-27.2c-6.4-4.8-11.2-12.8-11.2-20.8v-54.4c0-8 4.8-16 12.8-20.8l48-27.2c8-4.8 16-4.8 24 0L275.2 144zM192 777.6l-48 27.2v54.4l48 27.2 48-27.2v-54.4l-48-27.2z m8-14.4l48 27.2c4.8 3.2 8 8 8 14.4v54.4c0 6.4-3.2 11.2-8 14.4l-48 27.2c-4.8 3.2-11.2 3.2-16 0l-48-27.2c-4.8-3.2-8-8-8-14.4v-54.4c0-6.4 3.2-11.2 8-14.4l48-27.2c4.8-3.2 11.2-3.2 16 0z" fill="#ffffff"/>
<path d="M403.2 776l-62.4 62.4c-1.6 1.6-3.2 1.6-6.4 1.6h-88c-4.8 0-8-3.2-8-8s3.2-8 8-8h84.8l59.2-59.2v-68.8c0-4.8 3.2-8 8-8s8 3.2 8 8v64H576c4.8 0 8 3.2 8 8s-3.2 8-8 8H403.2z m-11.2-436.8l-108.8-94.4c-3.2-3.2-3.2-8-1.6-11.2 3.2-3.2 8-3.2 11.2-1.6l110.4 94.4H528c4.8 0 8 3.2 8 8s-3.2 8-8 8h-120V400c0 4.8-3.2 8-8 8s-8-3.2-8-8v-60.8zM800 728c-4.8 0-8-3.2-8-8s3.2-8 8-8h88c4.8 0 8 3.2 8 8s-3.2 8-8 8H800z m-49.6-435.2c-3.2 3.2-8 3.2-11.2 1.6-3.2-3.2-3.2-8-1.6-11.2l96-112c3.2-3.2 8-3.2 11.2-1.6 3.2 3.2 3.2 8 1.6 11.2l-96 112zM160 504c-4.8 0-8-3.2-8-8s3.2-8 8-8h112c4.8 0 8 3.2 8 8s-3.2 8-8 8h-112z m536 144c0 4.8-3.2 8-8 8s-8-3.2-8-8V544c0-4.8 3.2-8 8-8s8 3.2 8 8v104z" fill="#ffffff"/>
</g>
</svg>